<?xml version="1.0" encoding="UTF-8" standalone="no"?>
<!DOCTYPE svg PUBLIC "-//W3C//DTD SVG 1.1//EN" "http://www.w3.org/Graphics/SVG/1.1/DTD/svg11.dtd">
<svg width="100%" height="100%" viewBox="0 0 1024 1024" version="1.1" xmlns="http://www.w3.org/2000/svg" xmlns:xlink="http://www.w3.org/1999/xlink" xml:space="preserve" xmlns:serif="http://www.serif.com/" style="fill-rule:evenodd;clip-rule:evenodd;stroke-linecap:round;stroke-linejoin:round;stroke-miterlimit:1.5;">
    <rect x="-232.074" y="-223.559" width="1919.55" height="1533.46" style="fill:rgb(252,248,95);stroke:rgb(44,105,210);stroke-width:83.33px;"/>
    <g transform="matrix(0.973163,-0.973163,0.707107,0.707107,21.4808,988.507)">
        <path d="M-29.272,9.908L1022.97,9.908" style="fill:none;stroke:rgb(44,105,210);stroke-width:69.28px;"/>
    </g>
    <g transform="matrix(0.973163,-0.973163,0.707107,0.707107,142.16,1109.19)">
        <path d="M-29.272,9.908L1022.97,9.908" style="fill:none;stroke:rgb(44,105,210);stroke-width:69.28px;"/>
    </g>
    <g transform="matrix(0.973163,-0.973163,0.707107,0.707107,262.84,1229.87)">
        <path d="M-29.272,9.908L1022.97,9.908" style="fill:none;stroke:rgb(44,105,210);stroke-width:69.28px;"/>
    </g>
    <g transform="matrix(0.973163,-0.973163,0.707107,0.707107,-219.878,747.148)">
        <path d="M-29.272,9.908L1022.97,9.908" style="fill:none;stroke:rgb(44,105,210);stroke-width:69.28px;"/>
    </g>
    <g transform="matrix(0.973163,-0.973163,0.707107,0.707107,-99.1987,867.828)">
        <path d="M-29.272,9.908L1022.97,9.908" style="fill:none;stroke:rgb(44,105,210);stroke-width:69.28px;"/>
    </g>
    <g transform="matrix(0.973163,-0.973163,0.707107,0.707107,-340.558,626.469)">
        <path d="M-29.272,9.908L1022.97,9.908" style="fill:none;stroke:rgb(44,105,210);stroke-width:69.28px;"/>
    </g>
    <g transform="matrix(0.973163,-0.973163,0.707107,0.707107,-461.261,505.766)">
        <path d="M-29.272,9.908L1022.97,9.908" style="fill:none;stroke:rgb(44,105,210);stroke-width:69.28px;"/>
    </g>
    <g transform="matrix(0.973163,-0.973163,0.707107,0.707107,383.52,1350.55)">
        <path d="M-29.272,9.908L1022.97,9.908" style="fill:none;stroke:rgb(44,105,210);stroke-width:69.28px;"/>
    </g>
    <g transform="matrix(0.973163,-0.973163,0.707107,0.707107,504.223,1471.25)">
        <path d="M-29.272,9.908L1022.97,9.908" style="fill:none;stroke:rgb(44,105,210);stroke-width:69.28px;"/>
    </g>
</svg>
